<svg width="40" height="40" viewBox="0 0 40 40" fill="none" xmlns="http://www.w3.org/2000/svg">
<rect opacity="0.3" width="40" height="40" rx="3" fill="#00C965"/>
<g clip-path="url(#clip0_885_12919)">
<path d="M28.6999 17.9L29.6374 16.475C29.9749 15.95 29.8249 15.2375 29.2999 14.9L26.0749 12.8L26.3749 12.3875C26.7124 11.8625 26.5624 11.1875 26.0374 10.85L23.8624 9.425C23.3374 9.0875 22.6249 9.2375 22.3249 9.725L22.0249 10.175L18.9499 8.1875C18.7624 8.075 18.5749 8 18.3499 8C17.9749 8 17.5999 8.1875 17.4124 8.525L16.4749 9.95C16.3624 10.1375 16.3999 10.3625 16.5874 10.475L28.2124 18.0125C28.2499 18.05 28.3249 18.05 28.3999 18.0875H14.5624C14.3374 18.0875 14.1499 18.3125 14.1874 18.5375L16.0999 31.0625C16.1749 31.625 16.6624 32.0375 17.2249 32.0375H25.7749C26.3374 32.0375 26.8249 31.625 26.8999 31.0625L28.7749 18.5C28.8124 18.275 28.6249 18.0875 28.3999 18.05C28.5124 18.05 28.6249 17.975 28.6999 17.9ZM22.9249 10.175C23.0374 10.025 23.2624 9.95 23.4499 10.0625L25.6249 11.45C25.8124 11.5625 25.8499 11.825 25.7374 11.9375L25.4374 12.35L22.6249 10.55L22.9249 10.175ZM18.9124 30.275H18.8749C18.6874 30.275 18.5374 30.125 18.4999 29.9375L17.3749 20.1875C17.3374 20 17.4874 19.8125 17.7124 19.775C17.8999 19.7375 18.0874 19.8875 18.1249 20.1125L19.2499 29.8625C19.2499 30.05 19.0999 30.2375 18.9124 30.275ZM21.8374 29.9C21.8374 30.125 21.6874 30.275 21.4624 30.275C21.2374 30.275 21.0874 30.125 21.0874 29.9V20.15C21.0874 19.925 21.2374 19.775 21.4624 19.775C21.6874 19.775 21.8374 19.925 21.8374 20.15V29.9ZM24.4624 29.9375C24.4249 30.125 24.2749 30.275 24.0874 30.275H24.0499C23.8624 30.2375 23.7124 30.05 23.7124 29.8625L24.8374 20.1125C24.8749 19.925 25.0624 19.775 25.2499 19.775C25.4374 19.8125 25.5874 20 25.5874 20.1875L24.4624 29.9375Z" fill="#00C965"/>
<path d="M16.8126 16.925L18.3501 13.5125C18.4251 13.325 18.3501 13.1 18.1626 13.025L15.8376 11.975L12.4626 9.01252C12.2751 8.82502 11.9751 8.90002 11.8626 9.12502L10.2501 12.7625C10.1376 12.9875 10.3251 13.2875 10.5876 13.2875H12.0876V15.5375C12.0876 15.725 12.2001 15.8375 12.3501 15.9125L16.3251 17.1125C16.5126 17.1875 16.7001 17.1125 16.8126 16.925Z" fill="#00C965"/>
</g>
<defs>
<clipPath id="clip0_885_12919">
<rect width="24" height="24" fill="white" transform="translate(8 8)"/>
</clipPath>
</defs>
</svg>
