<svg width="40" height="40" viewBox="0 0 40 40" fill="none" xmlns="http://www.w3.org/2000/svg">
<rect opacity="0.3" width="40" height="40" rx="3" fill="#00C965"/>
<g clip-path="url(#clip0_885_13014)">
<path d="M26.5001 8C23.462 8 20.9999 10.4618 20.9999 13.4999V26.5001C20.9999 28.4336 19.4324 29.9999 17.5001 29.9999C15.5675 29.9999 14 28.4336 14 26.5001V20.8994C16.2821 20.4356 17.9999 18.4187 17.9999 16.0001V13.0001H16.0001V8.9999C16.0001 8.4473 15.5528 8 14.9999 8C14.4473 8 14 8.4473 14 8.9999V13.0001H11.9999V8.9999C11.9999 8.4473 11.5529 8 11 8C10.4471 8 10.0001 8.4473 10.0001 8.9999V13.0001H8V16.0001C8 18.419 9.71779 20.4356 11.9999 20.8994V26.5001C11.9999 29.5382 14.4629 32 17.5001 32C20.537 32 23 29.5382 23 26.5001V13.4999C23 11.5664 24.5666 10.0001 26.5001 10.0001C28.4336 10.0001 29.9999 11.5664 29.9999 13.4999V32H32V13.4999C32 10.4618 29.5382 8 26.5001 8Z" fill="#00C965"/>
</g>
<defs>
<clipPath id="clip0_885_13014">
<rect width="24" height="24" fill="white" transform="translate(8 8)"/>
</clipPath>
</defs>
</svg>
