<svg width="40" height="40" viewBox="0 0 40 40" fill="none" xmlns="http://www.w3.org/2000/svg">
<rect opacity="0.3" width="40" height="40" rx="3" fill="#00C965"/>
<path d="M30.7735 15.875C29.4735 10.0875 24.4235 7.5 19.9985 7.5H19.986C15.5735 7.5 10.536 10.0875 9.22347 15.8625C7.74847 22.3125 11.6985 27.775 15.2735 31.225C16.5406 32.4515 18.235 33.1373 19.9985 33.1375C21.6985 33.1375 23.3985 32.5 24.711 31.225C28.286 27.775 32.236 22.325 30.7735 15.875ZM23.436 19.6875H20.936V22.1875C20.936 22.7 20.511 23.125 19.9985 23.125C19.486 23.125 19.061 22.7 19.061 22.1875V19.6875H16.561C16.0485 19.6875 15.6235 19.2625 15.6235 18.75C15.6235 18.2375 16.0485 17.8125 16.561 17.8125H19.061V15.3125C19.061 14.8 19.486 14.375 19.9985 14.375C20.511 14.375 20.936 14.8 20.936 15.3125V17.8125H23.436C23.9485 17.8125 24.3735 18.2375 24.3735 18.75C24.3735 19.2625 23.9485 19.6875 23.436 19.6875Z" fill="#00C965"/>
</svg>
