<svg width="83" height="83" viewBox="0 0 83 83" fill="none" xmlns="http://www.w3.org/2000/svg">
<path d="M41.5 25.9382C39.8285 25.9382 38.4013 25.3468 37.2186 24.164C36.0358 22.9813 35.4456 21.5553 35.4479 19.8861C35.4479 18.2146 36.0393 16.7874 37.222 15.6047C38.4048 14.4219 39.8308 13.8317 41.5 13.834C43.1715 13.834 44.5987 14.4254 45.7814 15.6081C46.9642 16.7909 47.5544 18.2169 47.5521 19.8861C47.5521 21.5576 46.9607 22.9847 45.778 24.1675C44.5952 25.3503 43.1692 25.9405 41.5 25.9382ZM34.5833 69.1674V51.8757H31.125V36.3132C31.125 34.4111 31.8028 32.7822 33.1585 31.4265C34.5142 30.0709 36.1419 29.3942 38.0417 29.3965H44.9583C46.8604 29.3965 48.4893 30.0743 49.845 31.43C51.2006 32.7857 51.8773 34.4134 51.875 36.3132V51.8757H48.4167V69.1674H34.5833Z" fill="#1A232F"/>
<path d="M62.1654 27.7539C62.1654 28.0104 62.0893 28.2611 61.9468 28.4744C61.8043 28.6877 61.6018 28.8539 61.3648 28.9521C61.1278 29.0502 60.8671 29.0759 60.6155 29.0259C60.3639 28.9758 60.1328 28.8523 59.9515 28.6709C59.7701 28.4896 59.6466 28.2585 59.5965 28.0069C59.5465 27.7553 59.5722 27.4946 59.6703 27.2576C59.7685 27.0206 59.9347 26.8181 60.148 26.6756C60.3613 26.5331 60.612 26.457 60.8685 26.457C61.2124 26.457 61.5423 26.5937 61.7855 26.8369C62.0287 27.0801 62.1654 27.41 62.1654 27.7539ZM60.8685 16.082C58.4844 16.082 56.5456 17.8274 56.5456 19.9727V20.4049C56.5456 20.6343 56.6367 20.8542 56.7988 21.0163C56.961 21.1784 57.1809 21.2695 57.4102 21.2695C57.6395 21.2695 57.8594 21.1784 58.0215 21.0163C58.1837 20.8542 58.2747 20.6343 58.2747 20.4049V19.9727C58.2747 18.7839 59.4387 17.8112 60.8685 17.8112C62.2983 17.8112 63.4622 18.7839 63.4622 19.9727C63.4622 21.1615 62.2983 22.1341 60.8685 22.1341C60.6392 22.1341 60.4193 22.2252 60.2571 22.3873C60.095 22.5495 60.0039 22.7694 60.0039 22.9987V23.8633C60.0039 24.0926 60.095 24.3125 60.2571 24.4746C60.4193 24.6368 60.6392 24.7279 60.8685 24.7279C61.0978 24.7279 61.3177 24.6368 61.4798 24.4746C61.642 24.3125 61.7331 24.0926 61.7331 23.8633V23.7855C63.7043 23.4234 65.1914 21.851 65.1914 19.9727C65.1914 17.8274 63.2526 16.082 60.8685 16.082ZM72.1081 22.1341C72.1081 24.3571 71.4489 26.5302 70.2139 28.3785C68.9788 30.2268 67.2235 31.6674 65.1697 32.5181C63.1159 33.3688 60.856 33.5914 58.6758 33.1577C56.4955 32.7241 54.4928 31.6536 52.9209 30.0817C51.349 28.5098 50.2786 26.5071 49.8449 24.3269C49.4112 22.1466 49.6338 19.8867 50.4845 17.8329C51.3352 15.7791 52.7758 14.0238 54.6241 12.7887C56.4725 11.5537 58.6455 10.8945 60.8685 10.8945C63.8485 10.8977 66.7055 12.0829 68.8126 14.19C70.9198 16.2972 72.1049 19.1542 72.1081 22.1341ZM70.3789 22.1341C70.3789 20.2531 69.8211 18.4144 68.7761 16.8504C67.7311 15.2864 66.2458 14.0675 64.508 13.3476C62.7702 12.6278 60.8579 12.4395 59.0131 12.8064C57.1683 13.1734 55.4737 14.0792 54.1436 15.4092C52.8136 16.7393 51.9078 18.4339 51.5408 20.2787C51.1739 22.1236 51.3622 24.0358 52.082 25.7736C52.8018 27.5114 54.0208 28.9967 55.5848 30.0417C57.1488 31.0868 58.9875 31.6445 60.8685 31.6445C63.3899 31.6417 65.8073 30.6388 67.5902 28.8558C69.3731 27.0729 70.3761 24.6556 70.3789 22.1341Z" fill="#1A232F"/>
</svg>
